#!OML:ASF H:\Pregnant\Project 1\Capture day 1\Session 1\femalepreg.ASF
:FULLY-SPECIFIED
:DEGREES
862
root 13.8384 16.0206 -28.5175 183.046 -81.3694 190.954
lowerback -14.4702 3.58936 10.3284
upperback -6.16235 2.92425 1.02525
thorax 1.99299 1.15136 -4.25538
lowerneck -11.2108 13.9708 16.4753
upperneck 26.7962 18.7371 -9.52023
head 13.4312 8.811 -3.24482
rclavicle -9.74045e-015 -3.02153e-014
rhumerus -32.5829 -7.14002 -74.6343
rradius 25.243
rwrist -3.98275
rhand -1.7933 -5.60929
rfingers 7.12502
rthumb 23.8716 -34.1458
lclavicle -9.74045e-015 -3.02153e-014
lhumerus -43.6395 8.22954 65.8426
lradius 21.0394
lwrist 42.2205
lhand -28.8075 1.58173
lfingers 7.12502
lthumb -2.16578 31.5505
rfemur -35.0642 22.2802 14.6555
rtibia 36.0203
rfoot -13.9344 -8.49898
rtoes -19.0518
lfemur -25.1311 -9.9922 -20.1665
ltibia 56.0764
lfoot 14.1918 -18.7416
ltoes -12.8664
863
root 13.7667 16.025 -28.5523 181.708 -81.7347 192.312
lowerback -14.3453 3.38223 10.309
upperback -6.11361 2.65401 1.36947
thorax 1.92259 1.01862 -3.9304
lowerneck -11.13 14.1302 16.4953
upperneck 26.4804 19.0736 -9.87505
head 13.3824 8.93053 -3.31411
rclavicle 2.33572e-014 -7.95139e-015
rhumerus -31.9523 -6.26145 -74.721
rradius 25.4004
rwrist -4.31796
rhand -2.13808 -5.59138
rfingers 7.12502
rthumb 23.541 -34.1707
lclavicle 2.33572e-014 -7.95139e-015
lhumerus -44.0515 8.68305 65.8589
lradius 21.1303
lwrist 42.426
lhand -27.9273 1.98319
lfingers 7.12502
lthumb -1.31574 31.9589
rfemur -34.5362 22.0476 15.1041
rtibia 35.8582
rfoot -14.1183 -8.66929
rtoes -18.9759
lfemur -26.3539 -9.5818 -20.0192
ltibia 57.1464
lfoot 11.7162 -17.9992
ltoes -15.4368
864
root 13.6961 16.0269 -28.5855 180.366 -82.1023 193.695
lowerback -14.2149 3.28826 10.3961
upperback -6.09548 2.52777 1.55935
thorax 1.84864 0.953654 -3.80344
lowerneck -11.0914 14.2052 16.5679
upperneck 26.1903 19.2343 -10.1279
head 13.32 8.98914 -3.38639
rclavicle 1.85864e-014 1.27222e-014
rhumerus -31.4614 -5.85796 -74.7819
rradius 25.5347
rwrist -4.50626
rhand -2.5597 -5.57762
rfingers 7.12502
rthumb 23.1365 -34.2083
lclavicle 1.85864e-014 1.27222e-014
lhumerus -44.3008 8.59239 66.0168
lradius 21.2727
lwrist 42.7399
lhand -26.9941 2.33155
lfingers 7.12502
lthumb -0.414406 32.3109
rfemur -34.0933 21.8067 15.5207
rtibia 35.7985
rfoot -14.3448 -8.85352
rtoes -18.8871
lfemur -27.6 -9.16823 -19.9093
ltibia 58.1221
lfoot 9.22453 -17.0733
ltoes -17.9488
865
root 13.6258 16.0264 -28.6167 179.258 -82.4688 194.868
lowerback -14.1217 3.29116 10.5115
upperback -6.07469 2.52294 1.68985
thorax 1.81798 0.950125 -3.73271
lowerneck -11.1299 14.185 16.4404
upperneck 25.8842 19.264 -10.3138
head 13.2125 8.97735 -3.4293
rclavicle -2.39536e-014 -4.45278e-014
rhumerus -31.0265 -5.72033 -74.7066
rradius 25.6557
rwrist -4.64526
rhand -3.06831 -5.5918
rfingers 7.12502
rthumb 22.6484 -34.2829
lclavicle -2.39536e-014 -4.45278e-014
lhumerus -44.3926 8.26736 66.3806
lradius 21.4078
lwrist 42.9534
lhand -25.9306 2.69133
lfingers 7.12502
lthumb 0.612733 32.6702
rfemur -33.7451 21.5472 15.8715
rtibia 35.8429
rfoot -14.6165 -9.039
rtoes -18.7972
lfemur -28.8519 -8.74713 -19.8836
ltibia 58.9853
lfoot 6.71963 -16.0473
ltoes -20.4962
866
root 13.5556 16.0242 -28.6466 178.661 -82.8423 195.56
lowerback -14.0778 3.38518 10.6203
upperback -6.05567 2.63585 1.74518
thorax 1.83135 1.00662 -3.71624
lowerneck -11.245 14.072 16.1328
upperneck 25.5781 19.1596 -10.4191
head 13.0671 8.89691 -3.44091
rclavicle -8.94531e-016 -2.62396e-014
rhumerus -30.6598 -5.84981 -74.5121
rradius 25.7655
rwrist -4.74255
rhand -3.62972 -5.6199
rfingers 7.12502
rthumb 22.1095 -34.3758
lclavicle -8.94531e-016 -2.62396e-014
lhumerus -44.3393 7.58251 66.9779
lradius 21.5735
lwrist 43.2087
lhand -24.7807 3.0737
lfingers 7.12502
lthumb 1.72338 33.0465
rfemur -33.4972 21.2914 16.1167
rtibia 35.9887
rfoot -14.9241 -9.25003
rtoes -18.7111
lfemur -30.1016 -8.37485 -19.9682
ltibia 59.7135
lfoot 4.31099 -14.9481
ltoes -22.6846
867
root 13.4865 16.0212 -28.6751 178.579 -83.2447 195.779
lowerback -14.0622 3.53968 10.7311
upperback -6.05964 2.82936 1.71154
thorax 1.85101 1.10192 -3.78067
lowerneck -11.4111 13.9091 15.7817
upperneck 25.3156 18.9643 -10.4465
head 12.9219 8.77863 -3.43292
rclavicle 1.78906e-014 5.40694e-014
rhumerus -30.3677 -6.20512 -74.2693
rradius 25.864
rwrist -4.80944
rhand -4.20534 -5.66173
rfingers 7.12502
rthumb 21.5568 -34.482
lclavicle 1.78906e-014 5.40694e-014
lhumerus -44.2005 6.89216 67.5571
lradius 21.7143
lwrist 43.1527
lhand -23.5163 3.42256
lfingers 7.12502
lthumb 2.94453 33.382
rfemur -33.3611 21.0048 16.2648
rtibia 36.2256
rfoot -15.2746 -9.46511
rtoes -18.5529
lfemur -31.3819 -8.03326 -20.1337
ltibia 60.297
lfoot 2.1041 -13.8478
ltoes -24.3007
868
root 13.4176 16.0182 -28.7031 178.982 -83.6742 195.537
lowerback -14.0652 3.65919 10.7652
upperback -6.07828 2.98629 1.65749
thorax 1.85883 1.17904 -3.8299
lowerneck -11.5527 13.7622 15.503
upperneck 25.0708 18.7891 -10.499
head 12.7958 8.67329 -3.44112
rclavicle 3.46879e-014 6.04305e-014
rhumerus -30.0767 -6.53983 -74.0706
rradius 25.9389
rwrist -4.89956
rhand -4.75988 -5.71276
rfingers 7.12502
rthumb 21.0241 -34.5932
lclavicle 3.46879e-014 6.04305e-014
lhumerus -44.0901 6.42084 68.0107
lradius 21.8509
lwrist 42.7868
lhand -22.167 3.69241
lfingers 7.12502
lthumb 4.24748 33.6298
rfemur -33.2914 20.6976 16.3408
rtibia 36.5266
rfoot -15.6542 -9.69177
rtoes -18.3531
lfemur -32.6613 -7.72912 -20.3575
ltibia 60.7241
lfoot 0.151705 -12.8107
ltoes -25.3289
869
root 13.3499 16.0158 -28.7281 179.992 -84.1364 194.717
lowerback -14.0726 3.7343 10.7433
upperback -6.11449 3.09344 1.58529
thorax 1.84227 1.23041 -3.87615
lowerneck -11.6833 13.6485 15.3072
upperneck 24.854 18.6568 -10.5792
head 12.7001 8.59062 -3.46248
rclavicle -4.37326e-015 -4.45278e-014
rhumerus -29.773 -6.8015 -73.9224
rradius 25.9977
rwrist -5.04704
rhand -5.26877 -5.78899
rfingers 7.12502
rthumb 20.5352 -34.7229
lclavicle -4.37326e-015 -4.45278e-014
lhumerus -44.0131 6.03514 68.3934
lradius 22.0246
lwrist 42.3158
lhand -20.8559 3.74674
lfingers 7.12502
lthumb 5.51349 33.655
rfemur -33.275 20.3287 16.3424
rtibia 36.8595
rfoot -16.0528 -9.89395
rtoes -18.1683
lfemur -33.9506 -7.4708 -20.6362
ltibia 60.9909
lfoot -1.48988 -11.8735
ltoes -25.7104
870
root 13.2826 16.0136 -28.7511 181.191 -84.6241 193.707
lowerback -14.0606 3.7246 10.6758
upperback -6.15808 3.09691 1.54243
thorax 1.78938 1.22934 -3.88512
lowerneck -11.7691 13.6036 15.2512
upperneck 24.6581 18.6238 -10.7346
head 12.6454 8.55661 -3.51329
rclavicle 3.05134e-014 7.95139e-015
rhumerus -29.4256 -6.88484 -73.8637
rradius 26.032
rwrist -5.24694
rhand -5.41255 -5.69712
rfingers 7.12502
rthumb 20.397 -34.6459
lclavicle 3.05134e-014 7.95139e-015
lhumerus -44.0191 5.69944 68.7287
lradius 22.2697
lwrist 41.9075
lhand -19.6613 3.59481
lfingers 7.12502
lthumb 6.66675 33.4699
rfemur -33.2472 19.9101 16.3422
rtibia 37.1884
rfoot -16.4661 -10.0731
rtoes -17.971
lfemur -35.2053 -7.23184 -20.9187
ltibia 61.1026
lfoot -2.87416 -11.0652
ltoes -25.7523
871
root 13.2142 16.0123 -28.7717 182.619 -85.1077 192.44
lowerback -14.037 3.69282 10.597
upperback -6.18278 3.07363 1.51535
thorax 1.74535 1.21693 -3.87575
lowerneck -11.876 13.5631 15.1447
upperneck 24.4656 18.6044 -10.8851
head 12.5921 8.52343 -3.55092
rclavicle 3.97569e-015 -3.97569e-014
rhumerus -29.0573 -6.87849 -73.815
rradius 26.0623
rwrist -5.52824
rhand -5.60348 -5.68062
rfingers 7.12502
rthumb 20.2135 -34.6489
lclavicle 3.97569e-015 -3.97569e-014
lhumerus -44.0153 5.50249 69.0357
lradius 22.5083
lwrist 41.385
lhand -18.5965 3.16558
lfingers 7.12502
lthumb 7.69467 33.0056
rfemur -33.1593 19.469 16.3486
rtibia 37.4829
rfoot -16.8791 -10.2292
rtoes -17.8168
lfemur -36.3685 -6.9996 -21.2142
ltibia 61.0572
lfoot -4.05652 -10.3657
ltoes -25.6265
872
root 13.1444 16.0103 -28.791 183.714 -85.5871 191.456
lowerback -13.9754 3.65948 10.5641
upperback -6.18851 3.04703 1.499
thorax 1.70188 1.20358 -3.882
lowerneck -12.0092 13.5167 14.9991
upperneck 24.2869 18.5751 -11.01
head 12.5407 8.48384 -3.57383
rclavicle 1.30204e-014 -2.38542e-014
rhumerus -28.6971 -6.87363 -73.7705
rradius 26.0833
rwrist -5.83455
rhand -5.8224 -5.71366
rfingers 7.12502
rthumb 20.0031 -34.7041
lclavicle 1.30204e-014 -2.38542e-014
lhumerus -43.9905 5.33811 69.3399
lradius 22.752
lwrist 40.8249
lhand -17.6938 2.53788
lfingers 7.12502
lthumb 8.56586 32.3441
rfemur -32.973 19.014 16.4241
rtibia 37.7266
rfoot -17.2819 -10.3648
rtoes -17.7082
lfemur -37.4165 -6.76231 -21.4796
ltibia 60.8761
lfoot -5.10648 -9.75749
ltoes -25.6222
